<?xml version="1.0" standalone="no"?>
<!DOCTYPE svg PUBLIC "-//W3C//DTD SVG 20010904//EN"
 "http://www.w3.org/TR/2001/REC-SVG-20010904/DTD/svg10.dtd">
<svg version="1.0" xmlns="http://www.w3.org/2000/svg" width="107.000000px" height="107.000000px" viewBox="0 0 107.000000 107.000000" preserveAspectRatio="xMidYMid meet">
<defs>
<radialGradient id="radial0" gradientUnits="userSpaceOnUse" cx="0.5" cy="0.5" fx="0.5" fy="0.5" r="0.5" gradientTransform="matrix(83.257813,0,0,-100.3125,10.367188,103.65625)">
<stop offset="0" style="stop-color:rgb(76.078431%,91.372549%,98.431373%);stop-opacity:1;"/>
<stop offset="1" style="stop-color:rgb(63.137255%,76.862745%,99.215686%);stop-opacity:1;"/>
</radialGradient>
<radialGradient id="radial1" gradientUnits="userSpaceOnUse" cx="0.5" cy="0.5" fx="0.5" fy="0.5" r="0.5" gradientTransform="matrix(66.875,0,0,-15.671875,20.0625,36.445313)">
<stop offset="0" style="stop-color:rgb(76.078431%,91.372549%,98.431373%);stop-opacity:1;"/>
<stop offset="1" style="stop-color:rgb(63.137255%,76.862745%,99.215686%);stop-opacity:1;"/>
</radialGradient>
<radialGradient id="radial2" gradientUnits="userSpaceOnUse" cx="0.5" cy="0.5" fx="0.5" fy="0.5" r="0.5" gradientTransform="matrix(21.734375,0,0,-44.851562,28.421875,78.289062)">
<stop offset="0" style="stop-color:rgb(76.078431%,91.372549%,98.431373%);stop-opacity:1;"/>
<stop offset="1" style="stop-color:rgb(63.137255%,76.862745%,99.215686%);stop-opacity:1;"/>
</radialGradient>
</defs>
<g id="surface1">
<path style=" stroke:none;fill-rule:nonzero;fill:url(#radial0);" d="M 36.78125 12.371094 C 11.367188 27.085938 10.367188 28.421875 10.367188 53.164062 C 10.367188 65.203125 11.367188 76.90625 12.707031 78.578125 C 15.714844 82.925781 49.488281 103.65625 53.5 103.65625 C 55.171875 103.65625 64.535156 98.640625 74.898438 92.957031 L 93.625 81.921875 L 93.625 27.417969 L 74.566406 15.382812 C 63.867188 8.695312 54.503906 3.34375 53.5 3.34375 C 52.496094 3.34375 45.140625 7.355469 36.78125 12.371094 Z M 74.566406 20.0625 C 87.605469 28.421875 90.28125 31.765625 90.28125 40.125 C 90.28125 45.808594 89.277344 50.15625 87.941406 50.15625 C 86.9375 50.15625 79.246094 46.476562 71.222656 41.796875 L 56.84375 33.101562 L 56.84375 46.8125 C 56.84375 60.855469 58.515625 62.195312 66.875 56.84375 C 71.222656 53.835938 71.222656 53.164062 66.875 50.492188 C 59.519531 45.476562 65.203125 42.464844 73.226562 46.8125 C 82.925781 51.828125 81.921875 55.171875 68.546875 63.195312 C 62.195312 66.875 56.84375 72.558594 56.84375 75.570312 C 56.84375 79.914062 57.847656 80.25 61.859375 76.90625 C 64.535156 74.898438 68.546875 73.5625 70.554688 74.230469 C 72.894531 74.898438 70.21875 78.914062 64.199219 83.257812 L 53.5 90.617188 L 43.46875 83.59375 C 37.449219 79.246094 33.4375 73.5625 33.4375 68.882812 C 33.4375 61.191406 27.753906 53.5 22.070312 53.5 C 20.398438 53.5 21.398438 56.175781 24.410156 59.519531 C 30.429688 65.871094 32.101562 83.59375 27.085938 83.59375 C 20.398438 83.59375 17.054688 73.5625 17.054688 52.496094 L 17.054688 29.757812 L 32.769531 20.0625 C 41.460938 14.710938 50.824219 10.03125 53.5 10.03125 C 56.175781 10.03125 65.539062 14.710938 74.566406 20.0625 Z M 90.28125 66.207031 C 90.28125 76.570312 85.933594 81.585938 66.539062 93.289062 C 54.503906 100.3125 53.835938 100.3125 43.804688 94.628906 C 38.117188 91.285156 33.4375 87.605469 33.4375 85.933594 C 33.4375 82.257812 38.117188 83.257812 46.144531 88.945312 C 53.5 93.960938 54.835938 93.625 66.875 85.601562 C 75.570312 79.914062 79.246094 75.234375 78.242188 71.890625 C 76.238281 66.539062 82.257812 56.84375 87.273438 56.84375 C 88.945312 56.84375 90.28125 61.191406 90.28125 66.207031 Z M 90.28125 66.207031 "/>
<path style=" stroke:none;fill-rule:nonzero;fill:url(#radial1);" d="M 41.796875 26.75 C 36.445312 30.429688 29.089844 33.101562 26.082031 32.101562 C 22.738281 31.429688 20.0625 32.101562 20.0625 33.773438 C 20.0625 38.789062 31.097656 37.117188 42.800781 30.09375 C 53.5 23.40625 53.5 23.40625 64.535156 30.09375 C 75.902344 37.117188 86.9375 38.789062 86.9375 33.4375 C 86.9375 31.765625 84.597656 31.097656 81.921875 32.101562 C 79.246094 33.101562 71.890625 31.097656 65.871094 27.085938 C 52.164062 18.726562 54.167969 18.726562 41.796875 26.75 Z M 41.796875 26.75 "/>
<path style=" stroke:none;fill-rule:nonzero;fill:url(#radial2);" d="M 37.449219 40.460938 C 31.429688 44.472656 27.417969 48.484375 28.421875 49.488281 C 29.089844 50.492188 33.101562 48.484375 36.78125 45.140625 C 43.804688 38.789062 50.824219 40.792969 44.136719 47.480469 C 38.453125 53.164062 39.121094 71.890625 45.140625 76.90625 C 49.488281 80.585938 50.15625 77.910156 50.15625 57.179688 C 50.15625 44.136719 49.820312 33.4375 49.488281 33.4375 C 48.820312 33.4375 43.46875 36.78125 37.449219 40.460938 Z M 37.449219 40.460938 "/>
</g>
</svg>
